# xmcd
#
# Track frame offsets: 
#        182
#        15810
#        49787
#        72135
#        86267
#
# Disc length: 1581 seconds
#
# Revision: 0
# Processed by: cddbd v1.5.2PL0 Copyright (c) Steve Scherf et al.
# Submitted via: ExactAudioCopy v0.99pb5
#
DISCID=2b062b05
DTITLE=Van Morrison - Days Like This promo interview disc
DYEAR=1996
DGENRE=Rhythmic Soul
TTITLE0=Q +A Days Like This
TTITLE1=Q and A  Raincheck
TTITLE2=Q+A Russian Roulette
TTITLE3=Q+A Songwriter
TTITLE4=Q+A Perfect Fit
EXTD=
EXTT0=
EXTT1=
EXTT2=
EXTT3=
EXTT4=
PLAYORDER=
